<svg width="100" height="100" viewBox="0 0 100 100" fill="none" xmlns="http://www.w3.org/2000/svg">
<path d="M0 50C0 8.825 8.825 0 50 0C91.175 0 100 8.825 100 50C100 91.175 91.175 100 50 100C8.825 100 0 91.175 0 50Z" fill="#5865F2"/>
<path d="M52.9896 65.3032C46.5683 71.3574 40.801 74.0581 38.72 74.6516C39.4335 65.7484 52.0977 42.1548 58.3406 31.471C52.9896 34.32 37.9768 67.6774 31.1393 84C30.4258 77.5897 32.6257 62.6323 33.8149 55.9548L37.3823 56.8452L34.7067 52.3935C35.0612 50.4645 36.2709 45.7161 38.2741 42.1548L44.0711 43.0452L40.5037 37.2581C42.6441 33.3406 44.9629 30.5806 45.8548 29.6903L52.9896 30.5806L49.8681 25.2387C52.4219 22.4194 59.2605 16.4245 66.1847 15H66.3673C69.5779 19.6297 69.1914 29.0968 68.5969 33.2516L61.0162 34.5871L67.2591 39.929C67.2591 42.0658 65.4754 46.1613 64.5836 47.9419L56.557 48.8323L61.908 53.2839C60.8378 56.1329 57.5974 60.1097 56.111 61.7419L50.314 62.6323L52.9896 65.3032Z" fill="white"/>
</svg>
